<svg xmlns="http://www.w3.org/2000/svg" id="_Слой_2" data-name="Слой 2"
  viewBox="0 0 1081.87 1186.13">
  <defs>
    <style>
      .cls-1 {
      fill: #fff;
      }

      .cls-2 {
      opacity: 1;
      }
    </style>
  </defs>
  <g id="Layer_1" data-name="Layer 1">
    <g class="cls-2">
      <g>
        <path class="cls-1"
          d="M570.53,542.6l-208.27-118.5-116.25-66.17-74.48-42.38-62.54-35.59c-30.66-17.45-69.56-5.71-85.69,25.68-7.96,15.49-14.01,31.97-17.96,49.07-3.53,15.21-5.34,30.93-5.34,46.87v383.09c0,74.81,40.26,144.47,105.01,181.86l10.14,5.85,116.25,67.12,14.61,8.45,116.25,67.1,74.52,43.04c14.94,8.63,30.66,15.23,46.87,19.87,18.96,5.45,38.55,8.18,58.12,8.18h.6c31.92-.07,57.52-26.44,57.52-58.36v-534.67c0-20.9-11.21-40.17-29.37-50.51M483.65,1050.91l-121.39-70.1-116.25-67.1-14.61-8.43-68.26-39.42c-28.92-16.68-47.98-47.64-47.98-81.04v-134.33l1.11.62v-233.27l129.75,73.86,116.25,66.14,121.39,69.1v423.98Z" />
        <path class="cls-1"
          d="M977.13,219.04L646.22,27.98c-64.61-37.31-144.84-37.31-209.45,0l-151.87,87.66-116.37,67.21,116.77,66.45,423.93,241.25-1.15,494.81-.31,134.06,116.1-67.03.33-134.08,1.05-461.3c.04-20.9-11.16-40.2-29.32-50.54l-394.27-224.35,93.07-53.74c14.39-8.32,30.57-12.47,46.75-12.47s32.33,4.14,46.75,12.47l330.91,191.07c28.84,16.63,46.76,47.67,46.76,80.97v569.96l11.21-6.49c64.59-37.28,104.74-106.78,104.74-181.39v-382.09c0-74.61-40.15-144.09-104.74-181.39" />
      </g>
    </g>
  </g>
</svg>