<?xml version="1.0" encoding="UTF-8"?>
<svg id="_Слой_2" data-name="Слой 2" xmlns="http://www.w3.org/2000/svg" xmlns:xlink="http://www.w3.org/1999/xlink" viewBox="0 0 97.5 72.87">
  <defs>
    <style>
      .cls-1 {
        fill: #fff;
      }

      .cls-2 {
        fill: none;
      }

      .cls-3 {
        clip-path: url(#clippath);
      }
    </style>
    <clipPath id="clippath">
      <path class="cls-2" d="M45.52,27.37c4.28,1.27,4.68,8.2,4.68,8.2,2.68,3.16,3.18,8.54,2.71,13.89-.66,7.48-5.87,9.33-10.23,13.01-4.37,3.68,54.81,10.4,54.81,10.4L95.89,0l-45.74,3.45v18.4l-4.63,5.52Z"/>
    </clipPath>
  </defs>
  <g id="Layer_1" data-name="Layer 1">
    <g>
      <path class="cls-1" d="M23.81,70.1c-5.3,0-10.11-1.24-14.31-3.68-4.29-2.49-7.44-6.21-9.36-11.04-.39-.98,0-2.1.91-2.62l10.66-6.15c.56-.32,1.23-.37,1.83-.14.6.23,1.06.72,1.26,1.33,1.28,3.99,4.14,5.85,9,5.85,2.65,0,4.69-.6,6.07-1.79,1.3-1.12,1.93-2.65,1.93-4.67s-.64-3.49-1.95-4.64c-1.37-1.21-3.41-1.82-6.05-1.82h-2.71c-.71,0-1.38-.36-1.77-.95l-4.79-7.23c-.5-.76-.47-1.75.09-2.47l9.85-12.85H4.02c-1.17,0-2.12-.95-2.12-2.12V3.45c0-1.17.95-2.12,2.12-2.12h39.76c1.17,0,2.12.95,2.12,2.12v10.3c0,.47-.16.92-.44,1.3l-10.06,13.05c3.4,1.44,6.28,3.55,8.6,6.28,3,3.54,4.53,7.85,4.53,12.81,0,7.13-2.46,12.82-7.31,16.9-4.74,3.99-10.6,6.01-17.41,6.01ZM4.84,55.49c1.57,3.14,3.81,5.53,6.8,7.27,3.54,2.06,7.63,3.1,12.17,3.1,5.86,0,10.66-1.64,14.67-5.01,3.9-3.28,5.8-7.74,5.8-13.65,0-3.97-1.15-7.26-3.52-10.06-2.4-2.83-5.57-4.84-9.42-5.98-.67-.2-1.2-.72-1.42-1.38-.22-.67-.09-1.4.34-1.95l11.4-14.79v-7.46H6.15v7.41h22.64c.81,0,1.55.46,1.9,1.18.36.72.27,1.59-.22,2.23l-11.55,15.06,3.32,5.02h1.57c3.71,0,6.69.97,8.86,2.88,2.25,1.98,3.39,4.62,3.39,7.83s-1.14,5.94-3.4,7.89c-2.17,1.87-5.14,2.82-8.84,2.82-6.81,0-10.28-3.1-12.04-6.41l-6.93,3.99Z"/>
      <g class="cls-3">
        <path class="cls-1" d="M80.7,68.07h-9.08c-1.17,0-2.12-.95-2.12-2.12v-14.39l-6.37,9.74c-.39.6-1.06.96-1.78.96h-1.02c-.72,0-1.38-.36-1.78-.96l-8.98-13.72c-.64-.98-.37-2.3.61-2.94.98-.64,2.3-.37,2.94.61l7.71,11.78,9-13.76c.51-.79,1.48-1.14,2.38-.87.9.27,1.52,1.1,1.52,2.04v19.39h4.83V31.07h-5.81l-10.15,15.48c-.39.6-1.06.96-1.78.96s-1.38-.36-1.78-.96l-9.72-14.83h-4.53c-1.17,0-2.12-.95-2.12-2.12s.95-2.12,2.12-2.12h5.68c.72,0,1.38.36,1.78.96l8.58,13.08,9-13.73c.39-.6,1.06-.96,1.78-.96h9.08c1.17,0,2.12.95,2.12,2.12v37c0,1.17-.95,2.12-2.12,2.12Z"/>
      </g>
    </g>
  </g>
</svg>