<?xml version="1.0" encoding="UTF-8"?>
<svg id="_Слой_2" data-name="Слой 2" xmlns="http://www.w3.org/2000/svg" viewBox="0 0 116.98 95.31">
  <defs>
    <style>
      .cls-1 {
        fill: #fff;
      }
    </style>
  </defs>
  <g id="Layer_1" data-name="Layer 1">
    <g>
      <path class="cls-1" d="M6.96,33.73h19.37l-3.51-29.59h-12.35l-3.51,29.59h0ZM28.58,37.88H4.73c-.58,0-1.13-.24-1.52-.66-.39-.42-.59-.99-.55-1.56L6.48,1.92c.08-1.08.98-1.92,2.07-1.92h16.19c1.09,0,1.99.83,2.07,1.92l3.8,33.52c.02.12.04.25.04.38,0,1.14-.93,2.07-2.08,2.07h0Z"/>
      <path class="cls-1" d="M25.42,13.23h-11.26c-1.15,0-2.07-.92-2.07-2.07s.92-2.07,2.07-2.07h11.26c1.14,0,2.07.93,2.07,2.07s-.93,2.07-2.07,2.07h0Z"/>
      <path class="cls-1" d="M4.14,91.17h108.69v-54.78c-4.16-6.94-9.01-11.24-17.11-11.24s-15.97,4.48-20.06,11.7c-.37.65-1.06,1.05-1.81,1.05s-1.44-.4-1.81-1.05c-4.08-7.22-11.78-11.7-20.06-11.7s-13.29,4.48-17.38,11.7c-.37.65-1.06,1.05-1.8,1.05H4.14v53.27h0ZM114.9,95.31H2.07c-1.15,0-2.07-.92-2.07-2.07v-57.41c0-1.15.92-2.08,2.07-2.08h29.56c4.95-7.9,10.99-12.75,20.36-12.75,8.66,0,16.77,4.15,21.87,11.03,5.09-6.88,13.2-11.03,21.87-11.03,9.78,0,16.17,5.29,20.99,13.81.18.31.27.66.27,1.02v57.41c0,1.15-.93,2.07-2.07,2.07h0Z"/>
      <path class="cls-1" d="M51.4,62.96c-2.63,0-4.77,2.14-4.77,4.78s2.14,4.77,4.77,4.77,4.77-2.14,4.77-4.77-2.14-4.78-4.77-4.78h0ZM51.4,76.66c-4.92,0-8.92-4-8.92-8.92s4-8.92,8.92-8.92,8.92,4.01,8.92,8.92-4.01,8.92-8.92,8.92h0Z"/>
      <path class="cls-1" d="M73.84,62.96c-2.63,0-4.77,2.14-4.77,4.78s2.14,4.77,4.77,4.77,4.77-2.14,4.77-4.77-2.14-4.78-4.77-4.78h0ZM73.84,76.66c-4.92,0-8.92-4-8.92-8.92s4.01-8.92,8.92-8.92,8.92,4.01,8.92,8.92-4,8.92-8.92,8.92h0Z"/>
      <path class="cls-1" d="M96.27,62.96c-2.63,0-4.77,2.14-4.77,4.78s2.14,4.77,4.77,4.77,4.77-2.14,4.77-4.77-2.14-4.78-4.77-4.78h0ZM96.27,76.66c-4.92,0-8.92-4-8.92-8.92s4-8.92,8.92-8.92,8.92,4.01,8.92,8.92-4.01,8.92-8.92,8.92h0Z"/>
      <path class="cls-1" d="M4.14,72.52h24.52v-9.55H4.14v9.55h0ZM30.74,76.66H2.07c-1.15,0-2.07-.92-2.07-2.07v-13.7c0-1.14.92-2.07,2.07-2.07h28.67c1.15,0,2.08.93,2.08,2.07v13.7c0,1.15-.93,2.07-2.08,2.07h0Z"/>
      <path class="cls-1" d="M16.41,76.66c-1.15,0-2.07-.92-2.07-2.07v-13.7c0-1.14.92-2.07,2.07-2.07s2.07.93,2.07,2.07v13.7c0,1.15-.92,2.07-2.07,2.07h0Z"/>
    </g>
  </g>
</svg>