<?xml version="1.0" encoding="UTF-8"?>
<svg id="_Слой_2" data-name="Слой 2" xmlns="http://www.w3.org/2000/svg" viewBox="0 0 80 97.88">
  <defs>
    <style>
      .cls-1 {
        fill: #fff;
      }
    </style>
  </defs>
  <g id="Layer_1" data-name="Layer 1">
    <g>
      <g>
        <path class="cls-1" d="M60.65,97.88h0c-1.27,0-2.45-.69-3.09-1.79l-11.91-20.38c-.57-.98-.24-2.24.74-2.82.98-.57,2.24-.24,2.82.74l11.45,19.6,3.95-6.76c.61-1.08,1.8-1.76,3.08-1.76l7.79-.04-11.53-19.56c-.58-.98-.25-2.24.73-2.82.98-.58,2.24-.25,2.82.73l12.01,20.39c.65,1.1.66,2.47.02,3.58-.63,1.11-1.82,1.8-3.1,1.8l-8.43.04-4.26,7.28c-.65,1.11-1.8,1.78-3.09,1.78ZM60.18,94.03s0,0,0,0h0ZM61.11,94.02h0s0,0,0,0ZM67.7,88.82h0s0,0,0,0ZM68.17,88.52v.02s0-.01,0-.02ZM75.96,85.48s0,0,0,0h0ZM76.42,84.66h0,0,0Z"/>
        <path class="cls-1" d="M19.35,97.88c-1.29,0-2.44-.66-3.09-1.78l-4.25-7.28-8.44-.04c-1.27,0-2.46-.69-3.09-1.8-.63-1.11-.62-2.48.02-3.58l11.93-20.38c.57-.98,1.83-1.31,2.82-.74.98.57,1.31,1.83.74,2.82l-11.45,19.57,7.81.04c1.27,0,2.46.68,3.09,1.79l3.93,6.72,11-19.65c.55-.99,1.81-1.35,2.8-.79.99.56,1.35,1.81.79,2.8l-11.47,20.49c-.65,1.12-1.83,1.81-3.1,1.81h0ZM19.81,94.02h0s0,0,0,0ZM12.31,88.82h0,0ZM11.84,88.54s0,0,0,.01h0ZM4.04,85.47h0s0,0,0,0ZM3.57,84.66h0,0Z"/>
        <g>
          <path class="cls-1" d="M4.77,26.53h3.43c0-.13-.01-.27-.02-.4-.1-1.79-.19-3.48.45-4.58.66-1.13,2.18-1.9,3.79-2.71,1.45-.73,2.96-1.48,4.12-2.64,1.16-1.16,1.92-2.66,2.65-4.12.81-1.61,1.58-3.14,2.71-3.79,1.1-.64,2.79-.55,4.58-.45,1.64.09,3.33.18,4.94-.25,1.55-.41,2.93-1.32,4.26-2.21,1.53-1.01,2.97-1.96,4.33-1.96s2.8.95,4.33,1.96c1.33.88,2.71,1.79,4.26,2.2,1.61.43,3.3.34,4.94.25,1.79-.1,3.48-.19,4.58.45,1.13.66,1.9,2.18,2.71,3.79.73,1.45,1.48,2.96,2.65,4.12,1.16,1.16,2.66,1.92,4.12,2.64,1.61.81,3.14,1.58,3.79,2.71.64,1.1.55,2.79.45,4.58,0,.13-.01.27-.02.4h3.43c0-.07,0-.14.01-.21.12-2.21.25-4.5-.9-6.49-1.17-2.02-3.32-3.1-5.22-4.05-1.27-.64-2.46-1.24-3.23-2.01s-1.37-1.97-2.01-3.23c-.95-1.9-2.03-4.05-4.05-5.22-1.99-1.15-4.27-1.03-6.49-.9-1.43.08-2.78.15-3.86-.14-1.01-.27-2.11-.99-3.26-1.76-1.79-1.18-3.83-2.52-6.22-2.52s-4.42,1.34-6.21,2.52c-1.16.76-2.25,1.48-3.26,1.76-1.08.29-2.43.21-3.86.14-2.21-.12-4.5-.25-6.49.9-2.02,1.17-3.1,3.32-4.05,5.22-.64,1.27-1.24,2.46-2.01,3.23-.77.77-1.97,1.37-3.23,2.01-1.9.95-4.05,2.03-5.22,4.05-1.15,1.99-1.03,4.28-.91,6.49,0,.07,0,.14.01.21Z"/>
          <path class="cls-1" d="M71.88,55.38c-.02.93-.14,1.76-.51,2.39-.65,1.13-2.18,1.9-3.79,2.71-1.45.73-2.96,1.48-4.12,2.64-1.16,1.16-1.91,2.66-2.65,4.12-.81,1.61-1.57,3.14-2.71,3.79-1.1.64-2.79.55-4.58.45-1.63-.09-3.33-.18-4.94.25-1.55.41-2.93,1.32-4.26,2.2-1.53,1.01-2.97,1.96-4.33,1.96s-2.8-.95-4.33-1.96c-1.34-.88-2.72-1.79-4.26-2.21-.94-.25-1.9-.32-2.86-.32-.69,0-1.39.04-2.07.08-1.79.1-3.48.19-4.58-.45-1.13-.66-1.9-2.18-2.71-3.79-.73-1.45-1.48-2.96-2.65-4.12-1.16-1.16-2.66-1.91-4.12-2.64-1.61-.81-3.14-1.58-3.79-2.71-.37-.63-.49-1.46-.51-2.39h-3.43c.02,1.43.24,2.83.98,4.11,1.17,2.02,3.32,3.1,5.22,4.05,1.27.64,2.46,1.24,3.23,2.01.77.77,1.37,1.97,2.01,3.23.95,1.9,2.03,4.05,4.05,5.22,1.99,1.15,4.28,1.03,6.49.9,1.43-.08,2.78-.15,3.86.14,1.01.27,2.11.99,3.27,1.76,1.79,1.18,3.83,2.52,6.21,2.52s4.42-1.34,6.21-2.52c1.16-.76,2.25-1.48,3.27-1.76,1.08-.29,2.43-.22,3.86-.14,2.21.12,4.5.25,6.49-.9,2.02-1.17,3.1-3.32,4.05-5.22.64-1.27,1.24-2.46,2.01-3.23s1.97-1.37,3.23-2.01c1.9-.95,4.05-2.03,5.22-4.05.74-1.28.95-2.68.98-4.11h-3.43Z"/>
        </g>
        <path class="cls-1" d="M60.79,59.89c.12-.12.23-.24.34-.36.13-.14.26-.28.39-.43.06-.07.13-.14.2-.21.17-.19.34-.39.5-.58.02-.03.04-.05.07-.08,4.21-5.04,6.75-11.52,6.75-18.58,0-6.48-2.14-12.47-5.75-17.31,0-.01-.02-.02-.02-.03-.18-.24-.36-.47-.54-.71-.03-.04-.07-.08-.1-.13-.16-.2-.32-.4-.49-.59-.05-.06-.11-.12-.16-.19-.15-.17-.3-.34-.45-.51-.07-.08-.14-.15-.21-.23-.14-.15-.27-.29-.41-.44-.09-.09-.17-.18-.26-.27-.12-.12-.24-.24-.37-.36-.11-.1-.21-.21-.32-.31-.09-.09-.18-.17-.27-.25-.79-.73-1.62-1.42-2.49-2.06,0,0,0,0,0,0-.23-.17-.46-.34-.7-.5-.01,0-.03-.02-.04-.03-.23-.16-.47-.32-.71-.47,0,0-.02-.01-.02-.02h0c-4.53-2.93-9.93-4.64-15.72-4.64s-11.16,1.7-15.69,4.62c0,0-.02.01-.03.02-.26.17-.52.34-.77.52-.03.02-.06.04-.08.06-.23.16-.46.33-.69.5-.05.04-.1.07-.14.11-.21.16-.41.31-.61.47-.07.05-.14.11-.2.16-.18.14-.36.29-.53.44-.09.08-.18.15-.27.23-.15.13-.3.26-.45.4-.11.1-.22.2-.33.3-.12.11-.24.23-.37.35-.13.12-.26.25-.38.38-.1.1-.19.19-.29.29-.15.15-.29.3-.43.46-.07.08-.15.16-.22.24-.16.18-.32.36-.48.54-.05.06-.1.11-.15.17-.18.21-.35.41-.52.63-.03.04-.06.07-.09.11-.19.23-.37.47-.55.71-.01.02-.02.03-.03.05-3.6,4.83-5.74,10.82-5.74,17.3,0,5.79,1.71,11.19,4.64,15.72h0s0,0,0,0c.16.25.33.5.49.74,0,0,0,0,0,0,.79,1.14,1.65,2.22,2.59,3.23.08.09.16.18.24.26.1.11.21.21.31.32.12.12.24.25.36.37.09.09.18.17.26.25.15.14.29.28.44.42.07.07.15.13.22.2.17.16.34.31.52.46.06.05.11.1.17.15.2.17.41.34.61.51.03.03.07.05.1.08,4.96,3.95,11.23,6.32,18.06,6.32,7.7,0,14.71-3.02,19.91-7.93.04-.04.08-.08.12-.12.17-.16.34-.32.5-.49.09-.09.17-.18.26-.27ZM26.11,61.16s-.03-.02-.05-.03c-.78-.51-1.53-1.06-2.25-1.65-.01,0-.02-.02-.04-.03-1.47-1.21-2.8-2.57-3.97-4.07h0c-3.39-4.34-5.41-9.8-5.41-15.72,0-4.82,1.34-9.34,3.67-13.19.12-.19.24-.38.36-.57.03-.04.05-.08.08-.13.12-.18.24-.37.36-.55.03-.05.07-.09.1-.14.12-.17.24-.34.37-.51.04-.05.08-.11.12-.16.12-.16.24-.32.37-.48.05-.06.09-.12.14-.18.12-.15.24-.3.36-.45.05-.07.11-.13.16-.2.12-.14.24-.28.36-.41.06-.07.13-.14.19-.21.11-.13.23-.25.35-.38.07-.08.15-.15.22-.23.11-.11.22-.23.34-.34.08-.08.17-.16.25-.25.11-.1.21-.21.32-.31.09-.09.19-.17.28-.26.1-.09.2-.18.31-.27.1-.09.21-.18.32-.27.1-.08.19-.16.29-.25.12-.1.23-.19.35-.28.09-.07.18-.15.27-.22.13-.1.25-.2.38-.29.08-.06.17-.13.26-.19.14-.1.28-.2.42-.3.08-.06.16-.11.24-.17.15-.1.3-.2.45-.3.07-.05.15-.1.22-.14.16-.1.32-.2.48-.3,3.87-2.35,8.4-3.7,13.24-3.7,5.92,0,11.38,2.02,15.72,5.41h0c1.13.88,2.18,1.85,3.15,2.9,0,0,0,0,0,0,.32.35.63.7.93,1.07,0,.01.02.02.03.03.59.72,1.15,1.48,1.66,2.27,0,0,.01.02.02.03,2.6,4,4.11,8.78,4.11,13.9,0,6.03-2.1,11.56-5.6,15.94-.16.2-.32.39-.49.59-.15.17-.3.35-.45.52-.16.18-.32.35-.48.52-.17.18-.34.36-.51.53-.16.16-.31.31-.47.46-.19.18-.39.36-.58.54-.15.13-.3.27-.46.4-.21.18-.43.36-.65.54-4.37,3.48-9.9,5.57-15.91,5.57-5.12,0-9.89-1.51-13.89-4.11Z"/>
        <g>
          <path class="cls-1" d="M26.87,74.89v-3.43c-.13,0-.27.01-.4.02-1.79.1-3.48.19-4.58-.45-1.13-.66-1.9-2.18-2.71-3.79-.73-1.45-1.48-2.96-2.64-4.12-1.16-1.16-2.66-1.92-4.12-2.65-1.61-.81-3.14-1.58-3.79-2.71-.64-1.1-.55-2.79-.45-4.58.09-1.64.18-3.33-.25-4.94-.41-1.55-1.32-2.93-2.21-4.26-1.01-1.53-1.96-2.97-1.96-4.33s.95-2.8,1.96-4.33c.88-1.33,1.79-2.71,2.2-4.26.43-1.61.34-3.3.25-4.94-.1-1.79-.19-3.48.45-4.58.66-1.13,2.18-1.9,3.79-2.71,1.45-.73,2.96-1.48,4.12-2.65,1.16-1.16,1.92-2.66,2.64-4.12.81-1.61,1.58-3.14,2.71-3.79,1.1-.64,2.79-.55,4.58-.45.13,0,.27.01.4.02v-3.43c-.07,0-.14,0-.21-.01-2.21-.12-4.5-.25-6.49.9-2.02,1.17-3.1,3.32-4.05,5.22-.64,1.27-1.24,2.46-2.01,3.23s-1.97,1.37-3.23,2.01c-1.9.95-4.05,2.03-5.22,4.05-1.15,1.99-1.03,4.27-.9,6.49.08,1.43.15,2.78-.14,3.86-.27,1.01-.99,2.11-1.76,3.26-1.18,1.79-2.52,3.83-2.52,6.22s1.34,4.42,2.52,6.21c.76,1.16,1.48,2.25,1.76,3.26.29,1.08.21,2.43.14,3.86-.12,2.21-.25,4.5.9,6.49,1.17,2.02,3.32,3.1,5.22,4.05,1.27.64,2.46,1.24,3.23,2.01.77.77,1.37,1.97,2.01,3.23.95,1.9,2.03,4.05,4.05,5.22,1.99,1.15,4.28,1.03,6.49.91.07,0,.14,0,.21-.01Z"/>
          <path class="cls-1" d="M55.72,7.77c.93.02,1.76.14,2.39.51,1.13.65,1.9,2.18,2.71,3.79.73,1.45,1.48,2.96,2.64,4.12,1.16,1.16,2.66,1.91,4.12,2.65,1.61.81,3.14,1.57,3.79,2.71.64,1.1.55,2.79.45,4.58-.09,1.63-.18,3.33.25,4.94.41,1.55,1.32,2.93,2.2,4.26,1.01,1.53,1.96,2.97,1.96,4.33s-.95,2.8-1.96,4.33c-.88,1.34-1.79,2.72-2.21,4.26-.25.94-.32,1.9-.32,2.86,0,.69.04,1.39.08,2.07.1,1.79.19,3.48-.45,4.58-.66,1.13-2.18,1.9-3.79,2.71-1.45.73-2.96,1.48-4.12,2.65-1.16,1.16-1.91,2.66-2.64,4.12-.81,1.61-1.58,3.14-2.71,3.79-.63.37-1.46.49-2.39.51v3.43c1.43-.02,2.83-.24,4.11-.98,2.02-1.17,3.1-3.32,4.05-5.22.64-1.27,1.24-2.46,2.01-3.23.77-.77,1.97-1.37,3.23-2.01,1.9-.95,4.05-2.03,5.22-4.05,1.15-1.99,1.03-4.28.9-6.49-.08-1.43-.15-2.78.14-3.86.27-1.01.99-2.11,1.76-3.27,1.18-1.79,2.52-3.83,2.52-6.21s-1.34-4.42-2.52-6.21c-.76-1.16-1.48-2.25-1.76-3.27-.29-1.08-.22-2.43-.14-3.86.12-2.21.25-4.5-.9-6.49-1.17-2.02-3.32-3.1-5.22-4.05-1.27-.64-2.46-1.24-3.23-2.01s-1.37-1.97-2.01-3.23c-.95-1.9-2.03-4.05-4.05-5.22-1.28-.74-2.68-.95-4.11-.98v3.43Z"/>
        </g>
      </g>
      <path class="cls-1" d="M31.3,53.94c-.43,0-.85-.13-1.21-.39-.63-.46-.95-1.24-.82-2.01l1.48-8.62-6.27-6.11c-.56-.55-.76-1.36-.52-2.11.24-.74.89-1.29,1.66-1.4l8.66-1.26,3.87-7.85c.35-.7,1.06-1.15,1.85-1.15s1.5.44,1.85,1.15l3.87,7.85,8.66,1.26c.78.11,1.42.66,1.66,1.4.24.75.04,1.56-.52,2.11l-6.27,6.11,1.48,8.62c.13.77-.18,1.55-.82,2.01-.63.46-1.47.52-2.17.16l-7.75-4.07-7.74,4.07c-.3.16-.63.24-.96.24ZM40,45.25c.33,0,.66.08.96.24l5.01,2.63-.96-5.58c-.11-.67.11-1.35.59-1.82l4.05-3.95-5.6-.81c-.67-.1-1.25-.52-1.55-1.13l-2.51-5.08-2.51,5.08c-.3.61-.88,1.03-1.55,1.13l-5.6.81,4.05,3.95c.49.47.71,1.15.59,1.82l-.96,5.58,5.01-2.63c.3-.16.63-.24.96-.24Z"/>
    </g>
  </g>
</svg>