<?xml version="1.0" encoding="UTF-8"?>
<svg id="_Слой_2" data-name="Слой 2" xmlns="http://www.w3.org/2000/svg" viewBox="0 0 93.62 109.13">
  <defs>
    <style>
      .cls-1 {
        fill: #fff;
      }
    </style>
  </defs>
  <g id="Layer_1" data-name="Layer 1">
    <g>
      <path class="cls-1" d="M53.33,65.31c-18.01,0-32.66-14.65-32.66-32.66S35.33,0,53.33,0s32.66,14.65,32.66,32.66-14.65,32.66-32.66,32.66ZM53.33,4.03c-15.79,0-28.63,12.84-28.63,28.63s12.84,28.63,28.63,28.63,28.63-12.84,28.63-28.63-12.84-28.63-28.63-28.63Z"/>
      <path class="cls-1" d="M41.04,54.88c-.27,0-.54-.03-.81-.09-1.5-.33-2.64-1.58-2.91-3.18-.07-.43-.21-.82-.37-1.27-.38-1.07-.85-2.41-.51-4.46.3-1.79.02-2.54-.36-3.04-.4-.13-1.49,0-2.11.3-.88.44-1.88.44-2.83,0-1.56-.73-2.88-2.62-3.43-4.93-.75-3.13.87-4.58,2.18-5.75.29-.26.59-.52.89-.83h0c.61-.6,3.77-3.55,6.6-2.81.98.26,1.75.93,2.15,1.88.73-.1,1.76-.2,3.2-.05,1.75.18,3.04.8,3.83,1.86.98,1.3.93,2.82.76,4.02.89.09,1.98.22,2.87.92.81.63,1.24,1.57,1.16,2.57-.14,1.87-1.94,3.35-2.88,3.86-.48.26-.62.34-.46,1.17.48,2.54-.79,4.32-2.14,6.21-.25.36-.53.74-.8,1.15-1.08,1.58-2.54,2.46-4.02,2.46ZM35.57,38.78c1.35,0,2.68.38,3.53,1.4,1.35,1.63,1.77,3.65,1.31,6.38-.17,1.03.03,1.6.33,2.45.17.49.37,1.04.5,1.7.13-.11.3-.28.48-.55.3-.44.59-.84.86-1.22,1.22-1.72,1.61-2.34,1.46-3.11-.45-2.38.31-4.17,2.28-5.34-.9-.12-1.95-.36-2.65-1.27-.33-.44-.7-1.19-.52-2.27.02-.12.04-.23.06-.36.08-.45.25-1.39.12-1.64h0s-.22-.19-1.03-.27c-1.17-.12-1.93,0-2.54.08-.94.14-2.83.41-3.76-1.89-.57.22-1.51.77-2.4,1.65-.38.38-.73.69-1.04.97q-1.14,1.01-.95,1.8c.26,1.07.74,1.76,1.03,2.06.83-.33,1.88-.56,2.92-.56ZM32.84,39.49h0,0ZM39.77,31.41h0Z"/>
      <path class="cls-1" d="M68.17,53.84c-3.18,0-3.71-1.82-4.07-4.32-.08-.57-.24-1.15-.4-1.71-.36-1.28-.73-2.61,0-3.84.28-.48.85-1.11,1.93-1.37.23-.06.47-.11.72-.16,1.61-.34,2.35-.58,2.74-1.46,1.21-2.73,5.15-3.77,7.11-3.11.8.27,1.38.81,1.65,1.49,1.45-1.09,3.6-2.23,6.11-.94.99.51,1.38,1.73.87,2.71-.51.99-1.73,1.38-2.71.87-.58-.3-1.09-.07-2.59,1.18l-.2.17c-1.44,1.2-2.93,1.02-3.84.46-.71-.44-1.21-1.15-1.43-1.98-.56.16-1.14.46-1.28.79-1.19,2.69-3.66,3.35-5.3,3.71.04.14.08.28.11.41.18.65.39,1.39.51,2.22.04.25.08.59.13.87.17,0,.4-.03.72-.06.32-.04.49-.08.57-.1,0,0,0,0,0,0,.65-.76,1.44-1.28,3.18-1.35h.19c2.38-.1,4.84-.2,6.21,2.57.49,1,.09,2.21-.91,2.7-1,.49-2.21.09-2.7-.91-.18-.36-.21-.43-2.44-.34h-.19c-.16.01-.27.03-.35.04-.63.71-1.42,1.22-3.1,1.41-.45.05-.86.08-1.23.08Z"/>
      <path class="cls-1" d="M78.39,34.99c-1.83,0-3.83-1.07-5.04-2.4-1.19-.37-5.49-.19-8.1-.09-5.61.23-8.03.24-9.4-.57-2.72-1.61-2.4-4.43-2.23-5.94,0-.07.02-.15.03-.23-1.25-.4-4.19-.73-6.48-.57-.75.05-.87.15-1.06.33-.64.58-1.48,1.18-3.26.93-.49-.07-1.98-.28-2.81-1.57-.89-1.38-.44-2.96,0-4.48.58-2.04,2.85-3.12,5.07-3.85-.85-.43-1.36-1.25-1.34-2.2.02-.92.47-2.24,3.77-4.3,1.91-1.19,4.02-2.15,5.64-2.56,2.82-.71,6.08-.15,8.96.34,1.22.21,2.38.4,3.38.49l.68.06c.52.04,1.06.09,1.37.1.06-.08.13-.17.19-.25.11-.15.24-.31.38-.5.72-.93,1.46-1.5,2.39-1.84,1.04-.39,2.2.15,2.59,1.19s-.15,2.2-1.19,2.59c-.12.04-.26.1-.6.53-.13.17-.24.31-.34.45-1.48,1.97-2.35,1.99-5.13,1.75l-.67-.06c-1.18-.1-2.42-.31-3.72-.53-2.61-.44-5.31-.9-7.31-.4-1.65.41-3.7,1.51-5.07,2.44,1.21.66,2.4,1.66,2.46,3.01.04.84-.39,1.93-1.71,2.45-.43.17-.99.33-1.68.53-.93.26-3.74,1.06-4.26,1.73-.06.21-.13.48-.2.73.62-.51,1.49-1,3.21-1.12,1.54-.11,7.71-.12,9.84,1.73.75.65.94,1.39.98,1.89.04.55-.03,1.11-.09,1.65-.17,1.5-.08,1.78.22,1.98.93.3,4.72.15,7.24.05,7.07-.29,9.87-.25,11.16,1.31.47.57,1.27.97,1.79,1.11.41-2.17,1.49-2.85,2.58-3.36.23-.11.41-.19.57-.31.35-.26.53-.44.68-.67.6-.94,1.84-1.22,2.78-.62.94.6,1.22,1.84.62,2.78-.53.83-1.16,1.36-1.66,1.74-.49.37-.94.58-1.27.74-.08.04-.18.09-.25.12-.03.08-.08.27-.12.61-.18,1.44-1.08,2.53-2.41,2.92-.37.11-.76.16-1.16.16Z"/>
      <g>
        <path class="cls-1" d="M62.45,95.98H26.1c-1.11,0-2.01-.9-2.01-2.01s.9-2.01,2.01-2.01h35.56s26.97-25.4,26.97-25.4c-3.42-2.66-6.65-2.5-10.5.39-5.75,4.31-14.27,10.76-14.36,10.82-.89.67-2.15.5-2.82-.39-.67-.89-.5-2.15.39-2.82.09-.06,8.62-6.51,14.37-10.83,6.05-4.54,11.88-4.08,17.33,1.37.38.39.6.91.59,1.45s-.24,1.06-.63,1.44l-29.15,27.45c-.37.35-.87.55-1.38.55Z"/>
        <path class="cls-1" d="M40.12,84.37c-1.11,0-2.01-.9-2.01-2.01s.9-2.01,2.01-2.01h20.65c-.28-1.9-1-3.3-2.15-4.17-1.27-.96-2.75-1.04-3.18-1.04h-10.83c-.4,0-.79-.12-1.12-.34-4.74-3.18-7.52-3.75-13-3.75-6.51,0-11.66,3.27-18.34,11.65-.69.87-1.96,1.01-2.83.32-.87-.69-1.01-1.96-.32-2.83,7.46-9.35,13.68-13.17,21.49-13.17,5.79,0,9.37.6,14.73,4.09h10.23s0,0,0,0c.95,0,3.4.18,5.61,1.85,1.77,1.34,3.89,4.06,3.89,9.4,0,.53-.21,1.05-.59,1.42-.38.38-.89.59-1.42.59h-22.8Z"/>
        <path class="cls-1" d="M24.85,109.13c-.52,0-1.03-.2-1.42-.59-.79-.79-.79-2.06,0-2.85l3.74-3.74-21.53-21.53c-.79-.79-.79-2.06,0-2.85.79-.79,2.06-.79,2.85,0l22.95,22.95c.38.38.59.89.59,1.42s-.21,1.05-.59,1.42l-5.17,5.17c-.39.39-.91.59-1.42.59Z"/>
        <path class="cls-1" d="M24.85,109.13c-.52,0-1.03-.2-1.42-.59-.79-.79-.79-2.06,0-2.85l3.74-3.74-20.1-20.1-3.62,3.62c-.79.79-2.06.79-2.85,0-.79-.79-.79-2.06,0-2.85l5.05-5.05c.38-.38.89-.59,1.42-.59s1.05.21,1.42.59l22.95,22.95c.38.38.59.89.59,1.42s-.21,1.05-.59,1.42l-5.17,5.17c-.39.39-.91.59-1.42.59Z"/>
      </g>
    </g>
  </g>
</svg>