<?xml version="1.0" encoding="UTF-8"?>
<svg id="_Слой_2" data-name="Слой 2" xmlns="http://www.w3.org/2000/svg" viewBox="0 0 98.29 94.96">
  <defs>
    <style>
      .cls-1 {
        fill: #fff;
      }
    </style>
  </defs>
  <g id="Layer_1" data-name="Layer 1">
    <g>
      <path class="cls-1" d="M32.82,58.36c-4.33,0-7.85-3.52-7.85-7.85s3.52-7.85,7.85-7.85,7.85,3.52,7.85,7.85-3.52,7.85-7.85,7.85ZM32.82,46.7c-2.11,0-3.82,1.71-3.82,3.82s1.71,3.82,3.82,3.82,3.82-1.71,3.82-3.82-1.71-3.82-3.82-3.82Z"/>
      <path class="cls-1" d="M44.98,13.54c-3.14,0-5.7-2.55-5.7-5.7s2.55-5.7,5.7-5.7,5.7,2.55,5.7,5.7-2.55,5.7-5.7,5.7ZM44.98,6.18c-.92,0-1.67.75-1.67,1.67s.75,1.67,1.67,1.67,1.67-.75,1.67-1.67-.75-1.67-1.67-1.67Z"/>
      <path class="cls-1" d="M38.82,40.65c-.31,0-.62-.07-.91-.22-1.58-.8-3.3-1.21-5.09-1.21s-3.4.38-4.95,1.14c-.74.36-1.63.23-2.24-.32-.61-.56-.82-1.43-.53-2.2l9.52-25.16c.27-.71.91-1.21,1.66-1.29.75-.08,1.49.26,1.9.9,1.51,2.3,4.04,3.67,6.79,3.67.46,0,.93-.04,1.38-.12.71-.12,1.43.15,1.89.7.46.56.58,1.32.33,1.99l-7.88,20.81c-.2.53-.62.96-1.15,1.16-.23.09-.48.14-.73.14ZM32.82,35.19c1.67,0,3.3.26,4.85.78l6.08-16.05c-2.42-.24-4.69-1.2-6.53-2.73l-6.89,18.2c.81-.13,1.64-.2,2.48-.2Z"/>
      <path class="cls-1" d="M50.01,79.86c-1.02,0-1.9-.77-2-1.81l-1.99-19.75c-2.71,4.58-7.7,7.55-13.21,7.55-1.11,0-2.01-.9-2.01-2.01s.9-2.01,2.01-2.01c5.07,0,9.55-3.41,10.89-8.29.24-.87,1.04-1.48,1.94-1.48h1.97c1.03,0,1.9.78,2,1.81l2.39,23.78c.11,1.11-.7,2.09-1.8,2.21-.07,0-.14.01-.2.01Z"/>
      <path class="cls-1" d="M15.62,79.86c-.07,0-.14,0-.2-.01-1.11-.11-1.91-1.1-1.8-2.21l2.39-23.78c.1-1.03.97-1.81,2-1.81h1.97c.91,0,1.7.61,1.94,1.48,1.34,4.88,5.82,8.29,10.89,8.29,1.11,0,2.01.9,2.01,2.01s-.9,2.01-2.01,2.01c-5.51,0-10.5-2.97-13.21-7.55l-1.99,19.75c-.1,1.04-.98,1.81-2,1.81Z"/>
      <path class="cls-1" d="M63.62,94.96H2.01c-1.11,0-2.01-.9-2.01-2.01v-6.58c0-5.81,4.73-10.54,10.54-10.54h44.56c5.81,0,10.54,4.73,10.54,10.54v6.58c0,1.11-.9,2.01-2.01,2.01ZM4.03,90.93h57.58v-4.57c0-3.59-2.92-6.51-6.51-6.51H10.54c-3.59,0-6.51,2.92-6.51,6.51v4.57Z"/>
      <path class="cls-1" d="M85.38,21.39c-4.53,0-8.22-3.69-8.22-8.22h0s-22.61-.01-22.61-.01c-.65,0-1.26-.31-1.64-.84-.38-.53-.48-1.21-.26-1.83.29-.85.44-1.74.44-2.64,0-1.69-.51-3.3-1.48-4.67-.43-.61-.49-1.42-.14-2.09.35-.67,1.04-1.09,1.79-1.09h29.81c5.81,0,10.54,4.73,10.54,10.54v2.63c0,4.53-3.69,8.22-8.22,8.22ZM79.17,9.13c.53,0,1.05.21,1.42.59.38.38.59.89.59,1.42v2.03c0,2.31,1.88,4.19,4.19,4.19s4.19-1.88,4.19-4.19v-2.63c0-3.59-2.92-6.51-6.51-6.51h-26.56c.4,1.22.61,2.51.61,3.82,0,.43-.02.86-.07,1.28h22.13Z"/>
      <path class="cls-1" d="M96.27,34.7c-1.11,0-2.01-.9-2.01-2.01v-4.79c0-3.59-2.92-6.51-6.51-6.51h-4.74c-3.59,0-6.51,2.92-6.51,6.51v4.79c0,1.11-.9,2.01-2.01,2.01s-2.01-.9-2.01-2.01v-4.79c0-5.81,4.73-10.54,10.54-10.54h4.74c5.81,0,10.54,4.73,10.54,10.54v4.79c0,1.11-.9,2.01-2.01,2.01Z"/>
      <path class="cls-1" d="M85.38,29.61c-1.11,0-2.01-.9-2.01-2.01v-8.22c0-1.11.9-2.01,2.01-2.01s2.01.9,2.01,2.01v8.22c0,1.11-.9,2.01-2.01,2.01Z"/>
    </g>
  </g>
</svg>