<?xml version="1.0" encoding="UTF-8"?>
<svg id="_Слой_2" data-name="Слой 2" xmlns="http://www.w3.org/2000/svg" viewBox="0 0 111.34 72.15">
  <defs>
    <style>
      .cls-1 {
        fill: #fff;
      }
    </style>
  </defs>
  <g id="Layer_1" data-name="Layer 1">
    <g>
      <path class="cls-1" d="M105.69,72.15H5.65c-3.12,0-5.65-2.54-5.65-5.65V5.65C0,2.54,2.54,0,5.65,0h100.04c3.12,0,5.65,2.54,5.65,5.65v60.85c0,3.12-2.54,5.65-5.65,5.65ZM5.65,4.03c-.89,0-1.62.73-1.62,1.62v60.85c0,.89.73,1.62,1.62,1.62h100.04c.89,0,1.62-.73,1.62-1.62V5.65c0-.89-.73-1.62-1.62-1.62H5.65Z"/>
      <circle class="cls-1" cx="46.59" cy="27.15" r="2.01"/>
      <circle class="cls-1" cx="46.29" cy="45.61" r="2.01"/>
      <circle class="cls-1" cx="65.05" cy="45.61" r="2.01"/>
      <circle class="cls-1" cx="65.05" cy="26.75" r="2.01"/>
      <path class="cls-1" d="M65.72,46.28h-2.01v-1.34h.67v-.62h1.34v1.97ZM62.36,46.28h-1.34v-1.34h1.34v1.34ZM59.68,46.28h-1.34v-1.34h1.34v1.34ZM56.99,46.28h-1.34v-1.34h1.34v1.34ZM54.3,46.28h-1.34v-1.34h1.34v1.34ZM51.62,46.28h-1.34v-1.34h1.34v1.34ZM48.93,46.28h-1.34v-1.34h1.34v1.34ZM47.26,45.26h-1.34v-1.34h1.34v1.34ZM65.72,42.97h-1.34v-1.34h1.34v1.34ZM47.26,42.57h-1.34v-1.34h1.34v1.34ZM65.72,40.28h-1.34v-1.34h1.34v1.34ZM47.26,39.88h-1.34v-1.34h1.34v1.34ZM65.72,37.6h-1.34v-1.34h1.34v1.34ZM47.26,37.2h-1.34v-1.34h1.34v1.34ZM65.72,34.91h-1.34v-1.34h1.34v1.34ZM47.26,34.51h-1.34v-1.34h1.34v1.34ZM65.72,32.22h-1.34v-1.34h1.34v1.34ZM47.26,31.83h-1.34v-1.34h1.34v1.34ZM65.72,29.54h-1.34v-1.34h1.34v1.34ZM47.26,29.14h-1.34v-1.34h1.34v1.34ZM64.75,27.82h-1.34v-1.34h1.34v1.34ZM62.06,27.82h-1.34v-1.34h1.34v1.34ZM59.38,27.82h-1.34v-1.34h1.34v1.34ZM56.69,27.82h-1.34v-1.34h1.34v1.34ZM54.01,27.82h-1.34v-1.34h1.34v1.34ZM51.32,27.82h-1.34v-1.34h1.34v1.34ZM48.63,27.82h-1.34v-1.34h1.34v1.34Z"/>
    </g>
  </g>
</svg>