<?xml version="1.0" encoding="UTF-8"?>
<svg id="_Слой_2" data-name="Слой 2" xmlns="http://www.w3.org/2000/svg" viewBox="0 0 55.6 59.14">
  <defs>
    <style>
      .cls-1 {
        fill: #fff;
      }
    </style>
  </defs>
  <g id="Layer_1" data-name="Layer 1">
    <g>
      <g>
        <path class="cls-1" d="M51.7,58.53H3.9c-1.81,0-3.29-1.48-3.29-3.29V18.76c0-1.81,1.48-3.29,3.29-3.29h14.53l.05-3.26-5.03-.05c-1.81,0-3.29-1.48-3.29-3.29V3.9c0-1.81,1.48-3.29,3.29-3.29h28.69c1.81,0,3.29,1.48,3.29,3.29v4.98c0,1.81-1.48,3.29-3.29,3.29h-4.98l-.05,3.26s.02.05.05.05h14.53c1.81,0,3.29,1.48,3.29,3.29v36.48c0,1.81-1.48,3.29-3.29,3.29ZM3.9,18.71l-.05,36.53,47.86.05.05-36.53-14.59-.05c-1.81,0-3.29-1.48-3.29-3.29v-3.21c0-1.81,1.48-3.29,3.29-3.29h4.98l.05-5.03-6.7-.05H13.45l-.05,5.03,5.03.05c1.81,0,3.29,1.48,3.29,3.29v3.21c0,1.81-1.48,3.29-3.29,3.29H3.9Z"/>
        <path class="cls-1" d="M51.7,58.9H3.9c-2.02,0-3.66-1.64-3.66-3.66V18.76c0-2.02,1.64-3.66,3.66-3.66h14.16l.04-2.52-4.65-.05c-2.02,0-3.66-1.64-3.66-3.66V3.9c0-2.02,1.64-3.66,3.66-3.66h28.69c2.02,0,3.66,1.64,3.66,3.66v4.98c0,2.02-1.64,3.66-3.66,3.66h-4.61l-.04,2.56h14.21c2.02,0,3.66,1.64,3.66,3.66v36.48c0,2.02-1.64,3.66-3.66,3.66ZM3.9,15.85c-1.61,0-2.91,1.31-2.91,2.91v36.48c0,1.61,1.31,2.91,2.91,2.91h47.8c1.61,0,2.91-1.31,2.91-2.91V18.76c0-1.61-1.31-2.91-2.91-2.91h-14.53c-.24,0-.43-.19-.43-.43l.06-3.63h5.34c1.61,0,2.91-1.31,2.91-2.91V3.9c0-1.61-1.31-2.91-2.91-2.91H13.45c-1.61,0-2.91,1.31-2.91,2.91v4.98c0,1.61,1.31,2.91,2.91,2.91l5.41.06-.07,4H3.9ZM52.07,55.67l-48.6-.05.05-37.28h14.91c1.61,0,2.91-1.31,2.91-2.91v-3.21c0-1.61-1.31-2.91-2.91-2.91l-5.41-.06.06-5.77h22.41l7.08.06-.06,5.77h-5.35c-1.61,0-2.91,1.31-2.91,2.91v3.21c0,1.61,1.31,2.91,2.91,2.91l14.96.05-.05,37.28ZM4.22,54.87l47.11.05.05-35.78-14.21-.05c-2.02,0-3.66-1.64-3.66-3.66v-3.21c0-2.02,1.64-3.66,3.66-3.66h4.61l.04-4.28-6.32-.05H13.82l-.04,4.28,4.66.05c2.02,0,3.66,1.64,3.66,3.66v3.21c0,2.02-1.64,3.66-3.66,3.66H4.27l-.05,35.78Z"/>
      </g>
      <g>
        <path class="cls-1" d="M51.7,58.76H3.9c-1.94,0-3.52-1.58-3.52-3.52V18.76c0-1.94,1.58-3.52,3.52-3.52h14.3l.05-2.8-4.79-.05c-1.94,0-3.52-1.58-3.52-3.52V3.9c0-1.94,1.58-3.52,3.52-3.52h28.69c1.94,0,3.52,1.58,3.52,3.52v4.98c0,1.94-1.58,3.52-3.52,3.52h-4.75l-.05,2.85h14.35c1.94,0,3.52,1.58,3.52,3.52v36.48c0,1.94-1.58,3.52-3.52,3.52ZM3.9,15.71c-1.68,0-3.06,1.37-3.06,3.06v36.48c0,1.68,1.37,3.05,3.06,3.05h47.8c1.68,0,3.05-1.37,3.05-3.05V18.76c0-1.68-1.37-3.06-3.05-3.06h-14.53c-.16,0-.29-.13-.29-.29l.06-3.49h5.21c1.68,0,3.05-1.37,3.05-3.06V3.9c0-1.68-1.37-3.06-3.05-3.06H13.45c-1.68,0-3.06,1.37-3.06,3.06v4.98c0,1.68,1.37,3.06,3.06,3.06l5.27.06-.06,3.72H3.9ZM51.93,55.53l-48.32-.05.05-37h14.77c1.68,0,3.06-1.37,3.06-3.06v-3.21c0-1.68-1.37-3.06-3.06-3.06l-5.27-.06.06-5.49h22.27l6.94.05-.06,5.49h-5.21c-1.68,0-3.05,1.37-3.05,3.06v3.21c0,1.68,1.37,3.06,3.05,3.06l14.82.05-.05,37ZM4.08,55.01l47.39.05.05-36.06-14.35-.05c-1.94,0-3.52-1.58-3.52-3.52v-3.21c0-1.94,1.58-3.52,3.52-3.52h4.74l.05-4.56-6.47-.05H13.68l-.05,4.56,4.8.05c1.94,0,3.52,1.58,3.52,3.52v3.21c0,1.94-1.58,3.52-3.52,3.52H4.13l-.05,36.06Z"/>
        <path class="cls-1" d="M51.7,59.14H3.9c-2.15,0-3.9-1.75-3.9-3.9V18.76c0-2.15,1.75-3.9,3.9-3.9h13.93l.03-2.05-4.42-.05c-2.14,0-3.89-1.75-3.89-3.9V3.9c0-2.15,1.75-3.9,3.9-3.9h28.69c2.15,0,3.9,1.75,3.9,3.9v4.98c0,2.15-1.75,3.9-3.9,3.9h-4.38l-.03,2.1h13.97c2.15,0,3.9,1.75,3.9,3.9v36.48c0,2.15-1.75,3.9-3.9,3.9ZM3.9,16.08c-1.48,0-2.68,1.2-2.68,2.68v36.48c0,1.48,1.2,2.68,2.68,2.68h47.8c1.48,0,2.68-1.2,2.68-2.68V18.76c0-1.48-1.2-2.68-2.68-2.68h-14.53c-.36,0-.66-.3-.66-.66l.06-3.87h5.57c1.48,0,2.68-1.2,2.68-2.68V3.9c0-1.48-1.2-2.68-2.68-2.68H13.45c-1.48,0-2.68,1.2-2.68,2.68v4.98c0,1.48,1.2,2.68,2.68,2.68l5.65.06-.07,4.47H3.9ZM52.31,55.9l-49.07-.05.05-37.75h15.14c1.48,0,2.68-1.2,2.68-2.68v-3.21c0-1.48-1.2-2.68-2.68-2.68l-5.64-.06.07-6.24h22.65l7.31.06-.07,6.24h-5.58c-1.48,0-2.68,1.2-2.68,2.68v3.21c0,1.48,1.2,2.68,2.68,2.68l15.19.06-.05,37.74ZM4.45,54.63l46.64.05.05-35.32-13.98-.05c-2.15,0-3.89-1.75-3.89-3.9v-3.21c0-2.15,1.75-3.9,3.9-3.9h4.37l.04-3.82-6.09-.05H14.05l-.04,3.82,4.42.05c2.14,0,3.89,1.75,3.89,3.9v3.21c0,2.15-1.75,3.9-3.9,3.9H4.5l-.05,35.31Z"/>
      </g>
    </g>
  </g>
</svg>